<?xml version="1.0" encoding="utf-8"?>
<!-- Generator: Adobe Illustrator 13.0.2, SVG Export Plug-In . SVG Version: 6.00 Build 14948)  -->
<!DOCTYPE svg PUBLIC "-//W3C//DTD SVG 1.1//EN" "http://www.w3.org/Graphics/SVG/1.1/DTD/svg11.dtd">
<svg version="1.1" xmlns="http://www.w3.org/2000/svg" xmlns:xlink="http://www.w3.org/1999/xlink" x="0px" y="0px" width="16px"
	 height="16px" viewBox="0 0 16 16" enable-background="new 0 0 16 16" xml:space="preserve">
<g id="Layer_2_1_">
	<ellipse fill="#FFFFFF" cx="7.937" cy="8.021" rx="6.145" ry="6.354"/>
</g>
<g id="Layer_1">
	<g id="Layer_1_1_" display="none">
		<path display="inline" fill="#939598" d="M8.042-0.083C3.601-0.083,0,3.517,0,7.958C0,12.4,3.601,16,8.042,16
			c4.44,0,8.04-3.6,8.04-8.042C16.082,3.517,12.482-0.083,8.042-0.083z M6.479,13.378L5.505,11.43l3.31-3.353l-3.31-3.31
			l0.974-1.948l5.819,5.279L6.479,13.378z"/>
	</g>
	<g id="Layer_2">
		<path fill="#71AA02" d="M16,8.001C16,3.582,12.418,0,8,0S0,3.582,0,8.001C0,12.419,3.581,16,8,16S16,12.419,16,8.001z
			 M2.608,6.446l1.938-0.969l3.335,3.294l3.293-3.294l1.938,0.969L7.86,12.236L2.608,6.446z"/>
	</g>
</g>
</svg>
