<?xml version="1.0" encoding="utf-8"?>
<!-- Generator: Adobe Illustrator 17.1.0, SVG Export Plug-In . SVG Version: 6.00 Build 0)  -->
<!DOCTYPE svg PUBLIC "-//W3C//DTD SVG 1.1//EN" "http://www.w3.org/Graphics/SVG/1.1/DTD/svg11.dtd">
<svg version="1.1" xmlns="http://www.w3.org/2000/svg" xmlns:xlink="http://www.w3.org/1999/xlink" x="0px" y="0px"
	 viewBox="0 0 24 24" enable-background="new 0 0 24 24" xml:space="preserve" >
<g id="Rectangle_2_1_" enable-background="new    " transform="matrix(0.043 0 0 0.043 0 0)">
	<g id="Rectangle_2">
		<g>
			<rect y="301" fill-rule="evenodd" clip-rule="evenodd" width="550" height="60"/>
		</g>
	</g>
</g>
<g id="Rounded_Rectangle_1_copy_1_" enable-background="new    " transform="matrix(0.043 0 0 0.043 0 0)">
	<g id="Rounded_Rectangle_1_copy">
		<g>
			<path fill-rule="evenodd" clip-rule="evenodd" fill="#207DE5" d="M167.6,174H68c-8.8,0-18.3,9.3-21.2,20.8l-18.9,73.4
				c-2.9,11.5,1.8,20.8,10.6,20.8H138c8.8,0,18.3-9.3,21.2-20.8l18.9-73.4C181.1,183.3,176.4,174,167.6,174z"/>
		</g>
	</g>
</g>
<g id="Rounded_Rectangle_1_copy_5_1_" enable-background="new    " transform="matrix(0.043 0 0 0.043 0 0)"> 
	<g id="Rounded_Rectangle_1_copy_5">
		<g>
			<path fill-rule="evenodd" clip-rule="evenodd" d="M540.1,315.2l-11.3-43.7c-0.1-1.1-0.3-2.2-0.6-3.3l-17.8-73.4
				c-2.8-11.5-11.8-20.8-20.1-20.8H227.8c-8.3,0-17.3,9.3-20.1,20.8l-17.8,73.4c-0.2,0.8-0.3,1.6-0.5,2.3l-11.6,44.7
				c-3,11.5,1.8,20.8,10.7,20.8h340.9C538.3,336,543.1,326.7,540.1,315.2z"/>
		</g>
	</g>
</g>
</svg>
