<?xml version="1.0" encoding="utf-8"?>
<!-- Generator: Adobe Illustrator 13.0.2, SVG Export Plug-In . SVG Version: 6.00 Build 14948)  -->
<!DOCTYPE svg PUBLIC "-//W3C//DTD SVG 1.1//EN" "http://www.w3.org/Graphics/SVG/1.1/DTD/svg11.dtd">
<svg version="1.1" xmlns="http://www.w3.org/2000/svg" xmlns:xlink="http://www.w3.org/1999/xlink" x="0px" y="0px" width="16px"
	 height="16px" viewBox="0 0 16 16" enable-background="new 0 0 16 16" xml:space="preserve">
<g id="Layer_2_1_">
	<ellipse fill="#FFFFFF" cx="8" cy="8.083" rx="7" ry="6.751"/>
</g>
<g id="Layer_1">
	<g id="Layer_1_1_">
		<path fill="#939598" d="M8.001,0C3.582,0,0,3.582,0,8c0,4.419,3.582,8,8.001,8C12.419,16,16,12.419,16,8
			C16,3.582,12.419,0,8.001,0z M6.445,13.393l-0.969-1.938L8.77,8.118L5.477,4.825l0.969-1.938l5.791,5.252L6.445,13.393z"/>
	</g>
	<g id="Layer_2" display="none">
		<path display="inline" fill="#258455" d="M16,8.001C16,3.582,12.418,0,8,0S0,3.582,0,8.001C0,12.419,3.581,16,8,16
			S16,12.419,16,8.001z M2.608,6.446l1.938-0.969l3.335,3.294l3.293-3.294l1.938,0.969L7.86,12.236L2.608,6.446z"/>
	</g>
</g>
</svg>
