<?xml version="1.0" encoding="UTF-8" standalone="no"?>
<!DOCTYPE svg PUBLIC "-//W3C//DTD SVG 1.1//EN"
 "http://www.w3.org/Graphics/SVG/1.1/DTD/svg11.dtd">
<!-- Generated by graphviz version 2.36.0 (20140111.2315)
 -->
<!-- Title: G Pages: 1 -->
<svg width="402pt" height="942pt"
 viewBox="0.00 0.00 402.00 942.00" xmlns="http://www.w3.org/2000/svg" xmlns:xlink="http://www.w3.org/1999/xlink">
<g id="graph0" class="graph" transform="scale(1 1) rotate(0) translate(4 938)">
<title>G</title>
<polygon fill="white" stroke="none" points="-4,4 -4,-938 398,-938 398,4 -4,4"/>
<g id="clust1" class="cluster"><title>cluster_Global</title>
<path fill="none" stroke="gray" d="M20,-98C20,-98 374,-98 374,-98 380,-98 386,-104 386,-110 386,-110 386,-914 386,-914 386,-920 380,-926 374,-926 374,-926 20,-926 20,-926 14,-926 8,-920 8,-914 8,-914 8,-110 8,-110 8,-104 14,-98 20,-98"/>
<text text-anchor="middle" x="197" y="-913.2" font-family="Times,serif" font-size="11.00" fill="gray">Global</text>
</g>
<!-- \\metadata_form -->
<g id="node1" class="node"><title>\\metadata_form</title>
<polygon fill="none" stroke="black" points="120,-871 16,-871 16,-835 120,-835 120,-871"/>
<text text-anchor="middle" x="68" y="-850.2" font-family="Courier,monospace" font-size="11.00">metadata_form</text>
</g>
<!-- \\moodleform -->
<g id="node17" class="node"><title>\\moodleform</title>
<ellipse fill="none" stroke="black" cx="68" cy="-72" rx="57.6901" ry="18"/>
<text text-anchor="middle" x="68" y="-68.3" font-family="Times,serif" font-size="14.00" fill="gray">\moodleform</text>
</g>
<!-- \\metadata_form&#45;&gt;\\moodleform -->
<g id="edge1" class="edge"><title>\\metadata_form&#45;&gt;\\moodleform</title>
<path fill="none" stroke="black" d="M68,-834.752C68,-589.996 68,-345.239 68,-100.483"/>
<polygon fill="none" stroke="black" points="71.5001,-100.305 68,-90.3047 64.5001,-100.305 71.5001,-100.305"/>
</g>
<!-- \\session_form -->
<g id="node2" class="node"><title>\\session_form</title>
<polygon fill="none" stroke="black" points="337,-844 239,-844 239,-808 337,-808 337,-844"/>
<text text-anchor="middle" x="288" y="-823.2" font-family="Courier,monospace" font-size="11.00">session_form</text>
</g>
<!-- \\session_form&#45;&gt;\\metadata_form -->
<g id="edge2" class="edge"><title>\\session_form&#45;&gt;\\metadata_form</title>
<path fill="none" stroke="black" d="M238.889,-831.959C206.821,-835.93 164.399,-841.185 129.969,-845.449"/>
<polygon fill="none" stroke="black" points="129.519,-841.978 120.025,-846.68 130.379,-848.925 129.519,-841.978"/>
</g>
<!-- \\syllabus_form -->
<g id="node3" class="node"><title>\\syllabus_form</title>
<polygon fill="none" stroke="black" points="340,-574 236,-574 236,-538 340,-538 340,-574"/>
<text text-anchor="middle" x="288" y="-553.2" font-family="Courier,monospace" font-size="11.00">syllabus_form</text>
</g>
<!-- \\syllabus_form&#45;&gt;\\moodleform -->
<g id="edge3" class="edge"><title>\\syllabus_form&#45;&gt;\\moodleform</title>
<path fill="none" stroke="black" d="M235.819,-550.575C221.737,-546.65 207.69,-540.045 198,-529 68.7639,-381.691 249.713,-245.976 126,-94 124.558,-92.2288 122.956,-90.5999 121.23,-89.1018"/>
<polygon fill="none" stroke="black" points="123.188,-86.2002 112.987,-83.3369 119.176,-91.9365 123.188,-86.2002"/>
</g>
<!-- \\categories_form -->
<g id="node4" class="node"><title>\\categories_form</title>
<polygon fill="none" stroke="black" points="347,-520 229,-520 229,-484 347,-484 347,-520"/>
<text text-anchor="middle" x="288" y="-499.2" font-family="Courier,monospace" font-size="11.00">categories_form</text>
</g>
<!-- \\categories_form&#45;&gt;\\moodleform -->
<g id="edge4" class="edge"><title>\\categories_form&#45;&gt;\\moodleform</title>
<path fill="none" stroke="black" d="M228.572,-494.109C217.078,-490.061 206.089,-484.012 198,-475 82.884,-346.758 236.306,-226.402 126,-94 124.538,-92.2453 122.919,-90.6301 121.179,-89.1434"/>
<polygon fill="none" stroke="black" points="123.11,-86.223 112.894,-83.4136 119.128,-91.9803 123.11,-86.223"/>
</g>
<!-- \\general_form -->
<g id="node5" class="node"><title>\\general_form</title>
<polygon fill="none" stroke="black" points="337,-466 239,-466 239,-430 337,-430 337,-466"/>
<text text-anchor="middle" x="288" y="-445.2" font-family="Courier,monospace" font-size="11.00">general_form</text>
</g>
<!-- \\general_form&#45;&gt;\\moodleform -->
<g id="edge5" class="edge"><title>\\general_form&#45;&gt;\\moodleform</title>
<path fill="none" stroke="black" d="M238.959,-442.997C223.989,-439.158 208.636,-432.497 198,-421 96.9453,-311.758 222.956,-206.895 126,-94 124.512,-92.2674 122.871,-90.6706 121.114,-89.199"/>
<polygon fill="none" stroke="black" points="123.008,-86.2544 112.773,-83.5162 119.066,-92.0393 123.008,-86.2544"/>
</g>
<!-- \\assessment_form -->
<g id="node6" class="node"><title>\\assessment_form</title>
<polygon fill="none" stroke="black" points="347,-898 229,-898 229,-862 347,-862 347,-898"/>
<text text-anchor="middle" x="288" y="-877.2" font-family="Courier,monospace" font-size="11.00">assessment_form</text>
</g>
<!-- \\assessment_form&#45;&gt;\\metadata_form -->
<g id="edge6" class="edge"><title>\\assessment_form&#45;&gt;\\metadata_form</title>
<path fill="none" stroke="black" d="M228.866,-872.8C198.496,-869.039 161.335,-864.436 130.486,-860.615"/>
<polygon fill="none" stroke="black" points="130.64,-857.108 120.286,-859.352 129.78,-864.055 130.64,-857.108"/>
</g>
<!-- \\exclude_form -->
<g id="node7" class="node"><title>\\exclude_form</title>
<polygon fill="none" stroke="black" points="337,-412 239,-412 239,-376 337,-376 337,-412"/>
<text text-anchor="middle" x="288" y="-391.2" font-family="Courier,monospace" font-size="11.00">exclude_form</text>
</g>
<!-- \\exclude_form&#45;&gt;\\moodleform -->
<g id="edge7" class="edge"><title>\\exclude_form&#45;&gt;\\moodleform</title>
<path fill="none" stroke="black" d="M238.767,-388.621C223.963,-384.747 208.758,-378.16 198,-367 110.913,-276.658 209.695,-187.493 126,-94 124.477,-92.2983 122.806,-90.7273 121.025,-89.2769"/>
<polygon fill="none" stroke="black" points="122.869,-86.3002 112.609,-83.66 118.983,-92.1226 122.869,-86.3002"/>
</g>
<!-- \\policy_form -->
<g id="node8" class="node"><title>\\policy_form</title>
<polygon fill="none" stroke="black" points="333.5,-304 242.5,-304 242.5,-268 333.5,-268 333.5,-304"/>
<text text-anchor="middle" x="288" y="-283.2" font-family="Courier,monospace" font-size="11.00">policy_form</text>
</g>
<!-- \\policy_form&#45;&gt;\\moodleform -->
<g id="edge8" class="edge"><title>\\policy_form&#45;&gt;\\moodleform</title>
<path fill="none" stroke="black" d="M242.488,-280.326C226.935,-276.455 210.306,-269.946 198,-259 138.215,-205.826 183.783,-149.344 126,-94 124.157,-92.2345 122.156,-90.6065 120.045,-89.1058"/>
<polygon fill="none" stroke="black" points="121.818,-86.0879 111.446,-83.9268 118.206,-92.0843 121.818,-86.0879"/>
</g>
<!-- \\university_form -->
<g id="node9" class="node"><title>\\university_form</title>
<polygon fill="none" stroke="black" points="347,-250 229,-250 229,-214 347,-214 347,-250"/>
<text text-anchor="middle" x="288" y="-229.2" font-family="Courier,monospace" font-size="11.00">university_form</text>
</g>
<!-- \\university_form&#45;&gt;\\moodleform -->
<g id="edge9" class="edge"><title>\\university_form&#45;&gt;\\moodleform</title>
<path fill="none" stroke="black" d="M228.628,-220.713C217.779,-216.892 207.032,-211.795 198,-205 151.009,-169.65 171.655,-131.06 126,-94 123.946,-92.3329 121.752,-90.7818 119.463,-89.34"/>
<polygon fill="none" stroke="black" points="120.723,-86.0395 110.271,-84.306 117.361,-92.1791 120.723,-86.0395"/>
</g>
<!-- \\gradatt_form -->
<g id="node10" class="node"><title>\\gradatt_form</title>
<polygon fill="none" stroke="black" points="337,-196 239,-196 239,-160 337,-160 337,-196"/>
<text text-anchor="middle" x="288" y="-175.2" font-family="Courier,monospace" font-size="11.00">gradatt_form</text>
</g>
<!-- \\gradatt_form&#45;&gt;\\moodleform -->
<g id="edge10" class="edge"><title>\\gradatt_form&#45;&gt;\\moodleform</title>
<path fill="none" stroke="black" d="M238.585,-166.889C225.041,-162.837 210.59,-157.588 198,-151 161.838,-132.077 161.44,-114.244 126,-94 123.145,-92.369 120.145,-90.8104 117.078,-89.3306"/>
<polygon fill="none" stroke="black" points="118.307,-86.0455 107.751,-85.1339 115.434,-92.429 118.307,-86.0455"/>
</g>
<!-- \\behat_metadata_add -->
<g id="node11" class="node"><title>\\behat_metadata_add</title>
<polygon fill="none" stroke="black" points="357,-142 219,-142 219,-106 357,-106 357,-142"/>
<text text-anchor="middle" x="288" y="-121.2" font-family="Courier,monospace" font-size="11.00">behat_metadata_add</text>
</g>
<!-- \\behat_base -->
<g id="node18" class="node"><title>\\behat_base</title>
<ellipse fill="none" stroke="black" cx="68" cy="-18" rx="51.9908" ry="18"/>
<text text-anchor="middle" x="68" y="-14.3" font-family="Times,serif" font-size="14.00" fill="gray">\behat_base</text>
</g>
<!-- \\behat_metadata_add&#45;&gt;\\behat_base -->
<g id="edge11" class="edge"><title>\\behat_metadata_add&#45;&gt;\\behat_base</title>
<path fill="none" stroke="black" d="M250.623,-105.973C218.037,-89.8664 168.909,-65.689 126,-45 120.369,-42.2848 114.414,-39.4378 108.56,-36.6528"/>
<polygon fill="none" stroke="black" points="110.041,-33.4812 99.506,-32.3552 107.039,-39.8051 110.041,-33.4812"/>
</g>
<!-- \\recurring_element_parser -->
<g id="node12" class="node"><title>\\recurring_element_parser</title>
<polygon fill="none" stroke="black" points="377.5,-358 198.5,-358 198.5,-322 377.5,-322 377.5,-358"/>
<text text-anchor="middle" x="288" y="-337.2" font-family="Courier,monospace" font-size="11.00">recurring_element_parser</text>
</g>
<!-- \\reporting_form -->
<g id="node13" class="node"><title>\\reporting_form</title>
<polygon fill="none" stroke="black" points="343.5,-790 232.5,-790 232.5,-754 343.5,-754 343.5,-790"/>
<text text-anchor="middle" x="288" y="-769.2" font-family="Courier,monospace" font-size="11.00">reporting_form</text>
</g>
<!-- \\reporting_form&#45;&gt;\\moodleform -->
<g id="edge12" class="edge"><title>\\reporting_form&#45;&gt;\\moodleform</title>
<path fill="none" stroke="black" d="M232.196,-765.942C219.229,-761.926 206.667,-755.433 198,-745 11.988,-521.086 303.625,-324.624 126,-94 124.738,-92.3613 123.337,-90.8445 121.827,-89.4407"/>
<polygon fill="none" stroke="black" points="123.621,-86.4161 113.488,-83.3208 119.479,-92.0593 123.621,-86.4161"/>
</g>
<!-- \\tag_form -->
<g id="node14" class="node"><title>\\tag_form</title>
<polygon fill="none" stroke="black" points="323.5,-736 252.5,-736 252.5,-700 323.5,-700 323.5,-736"/>
<text text-anchor="middle" x="288" y="-715.2" font-family="Courier,monospace" font-size="11.00">tag_form</text>
</g>
<!-- \\tag_form&#45;&gt;\\moodleform -->
<g id="edge13" class="edge"><title>\\tag_form&#45;&gt;\\moodleform</title>
<path fill="none" stroke="black" d="M252.464,-716.374C233.535,-713.582 211.285,-706.832 198,-691 26.2101,-486.271 290.12,-304.928 126,-94 124.73,-92.3675 123.322,-90.8561 121.806,-89.4568"/>
<polygon fill="none" stroke="black" points="123.587,-86.4236 113.447,-83.3525 119.459,-92.0767 123.587,-86.4236"/>
</g>
<!-- \\course_select_form -->
<g id="node15" class="node"><title>\\course_select_form</title>
<polygon fill="none" stroke="black" points="357,-682 219,-682 219,-646 357,-646 357,-682"/>
<text text-anchor="middle" x="288" y="-661.2" font-family="Courier,monospace" font-size="11.00">course_select_form</text>
</g>
<!-- \\course_select_form&#45;&gt;\\moodleform -->
<g id="edge14" class="edge"><title>\\course_select_form&#45;&gt;\\moodleform</title>
<path fill="none" stroke="black" d="M218.752,-652.511C210.867,-648.69 203.644,-643.646 198,-637 40.4173,-451.437 276.63,-285.25 126,-94 124.72,-92.375 123.305,-90.87 121.781,-89.476"/>
<polygon fill="none" stroke="black" points="123.547,-86.4329 113.398,-83.3907 119.435,-92.0977 123.547,-86.4329"/>
</g>
<!-- \\knowledge_form -->
<g id="node16" class="node"><title>\\knowledge_form</title>
<polygon fill="none" stroke="black" points="343.5,-628 232.5,-628 232.5,-592 343.5,-592 343.5,-628"/>
<text text-anchor="middle" x="288" y="-607.2" font-family="Courier,monospace" font-size="11.00">knowledge_form</text>
</g>
<!-- \\knowledge_form&#45;&gt;\\moodleform -->
<g id="edge15" class="edge"><title>\\knowledge_form&#45;&gt;\\moodleform</title>
<path fill="none" stroke="black" d="M232.448,-603.728C219.479,-599.714 206.854,-593.275 198,-583 54.6044,-416.58 263.158,-265.597 126,-94 124.709,-92.3843 123.283,-90.8871 121.752,-89.4997"/>
<polygon fill="none" stroke="black" points="123.499,-86.4445 113.339,-83.4376 119.406,-92.1236 123.499,-86.4445"/>
</g>
</g>
</svg>
