<?xml version="1.0" encoding="UTF-8" standalone="no"?>
<!DOCTYPE svg PUBLIC "-//W3C//DTD SVG 1.1//EN"
 "http://www.w3.org/Graphics/SVG/1.1/DTD/svg11.dtd">
<!-- Generated by graphviz version 2.36.0 (20140111.2315)
 -->
<!-- Title: G Pages: 1 -->
<svg width="568pt" height="757pt"
 viewBox="0.00 0.00 568.00 757.18" xmlns="http://www.w3.org/2000/svg" xmlns:xlink="http://www.w3.org/1999/xlink">
<g id="graph0" class="graph" transform="scale(1 1) rotate(0) translate(4 753.175)">
<title>G</title>
<polygon fill="white" stroke="none" points="-4,4 -4,-753.175 564,-753.175 564,4 -4,4"/>
<g id="clust1" class="cluster"><title>cluster_Global</title>
<path fill="none" stroke="gray" d="M192,-75.1754C192,-75.1754 540,-75.1754 540,-75.1754 546,-75.1754 552,-81.1754 552,-87.1754 552,-87.1754 552,-729.175 552,-729.175 552,-735.175 546,-741.175 540,-741.175 540,-741.175 192,-741.175 192,-741.175 186,-741.175 180,-735.175 180,-729.175 180,-729.175 180,-87.1754 180,-87.1754 180,-81.1754 186,-75.1754 192,-75.1754"/>
<text text-anchor="middle" x="366" y="-728.375" font-family="Times,serif" font-size="11.00" fill="gray">Global</text>
</g>
<!-- \\tag_form -->
<g id="node1" class="node"><title>\\tag_form</title>
<polygon fill="none" stroke="black" points="489.5,-605.175 418.5,-605.175 418.5,-569.175 489.5,-569.175 489.5,-605.175"/>
<text text-anchor="middle" x="454" y="-584.375" font-family="Courier,monospace" font-size="11.00">tag_form</text>
</g>
<!-- \\moodleform -->
<g id="node14" class="node"><title>\\moodleform</title>
<ellipse fill="none" stroke="black" cx="58" cy="-587.175" rx="57.6901" ry="18"/>
<text text-anchor="middle" x="58" y="-583.475" font-family="Times,serif" font-size="14.00" fill="gray">\moodleform</text>
</g>
<!-- \\tag_form&#45;&gt;\\moodleform -->
<g id="edge1" class="edge"><title>\\tag_form&#45;&gt;\\moodleform</title>
<path fill="none" stroke="black" d="M418.38,-587.175C353.059,-587.175 210.608,-587.175 125.985,-587.175"/>
<polygon fill="none" stroke="black" points="125.961,-583.676 115.961,-587.175 125.96,-590.676 125.961,-583.676"/>
</g>
<!-- \\behat_metadata_add -->
<g id="node2" class="node"><title>\\behat_metadata_add</title>
<polygon fill="none" stroke="black" points="523,-551.175 385,-551.175 385,-515.175 523,-515.175 523,-551.175"/>
<text text-anchor="middle" x="454" y="-530.375" font-family="Courier,monospace" font-size="11.00">behat_metadata_add</text>
</g>
<!-- \\behat_base -->
<g id="node15" class="node"><title>\\behat_base</title>
<ellipse fill="none" stroke="black" cx="240" cy="-49.1754" rx="51.9908" ry="18"/>
<text text-anchor="middle" x="240" y="-45.4754" font-family="Times,serif" font-size="14.00" fill="gray">\behat_base</text>
</g>
<!-- \\behat_metadata_add&#45;&gt;\\behat_base -->
<g id="edge2" class="edge"><title>\\behat_metadata_add&#45;&gt;\\behat_base</title>
<path fill="none" stroke="black" d="M384.95,-521.515C377.035,-517.72 369.75,-512.73 364,-506.175 234.764,-358.867 412.734,-225.529 292,-71.1754 290.897,-69.7655 289.686,-68.4444 288.388,-67.2067"/>
<polygon fill="none" stroke="black" points="290.247,-64.2241 280.157,-60.9908 286.028,-69.8102 290.247,-64.2241"/>
</g>
<!-- \\gradatt_form -->
<g id="node3" class="node"><title>\\gradatt_form</title>
<polygon fill="none" stroke="black" points="503,-497.175 405,-497.175 405,-461.175 503,-461.175 503,-497.175"/>
<text text-anchor="middle" x="454" y="-476.375" font-family="Courier,monospace" font-size="11.00">gradatt_form</text>
</g>
<!-- \\gradatt_form&#45;&gt;\\moodleform -->
<g id="edge3" class="edge"><title>\\gradatt_form&#45;&gt;\\moodleform</title>
<path fill="none" stroke="black" d="M404.616,-474.481C389.622,-470.665 374.34,-463.939 364,-452.175 227.401,-296.768 444.594,33.708 241,-3.17543"/>
</g>
<!-- \\policy_form -->
<g id="node4" class="node"><title>\\policy_form</title>
<polygon fill="none" stroke="black" points="499.5,-443.175 408.5,-443.175 408.5,-407.175 499.5,-407.175 499.5,-443.175"/>
<text text-anchor="middle" x="454" y="-422.375" font-family="Courier,monospace" font-size="11.00">policy_form</text>
</g>
<!-- \\policy_form&#45;&gt;\\moodleform -->
<g id="edge4" class="edge"><title>\\policy_form&#45;&gt;\\moodleform</title>
<path fill="none" stroke="black" d="M408.472,-421.23C392.351,-417.585 375.341,-410.778 364,-398.175 241.01,-261.495 421.925,29.6012 241,-3.17543"/>
</g>
<!-- \\knowledge_form -->
<g id="node5" class="node"><title>\\knowledge_form</title>
<polygon fill="none" stroke="black" points="509.5,-335.175 398.5,-335.175 398.5,-299.175 509.5,-299.175 509.5,-335.175"/>
<text text-anchor="middle" x="454" y="-314.375" font-family="Courier,monospace" font-size="11.00">knowledge_form</text>
</g>
<!-- \\knowledge_form&#45;&gt;\\moodleform -->
<g id="edge5" class="edge"><title>\\knowledge_form&#45;&gt;\\moodleform</title>
<path fill="none" stroke="black" d="M398.31,-309.893C385.653,-305.875 373.211,-299.687 364,-290.175 267.457,-190.484 377.554,21.5628 241,-3.17543"/>
</g>
<!-- \\general_form -->
<g id="node6" class="node"><title>\\general_form</title>
<polygon fill="none" stroke="black" points="503,-281.175 405,-281.175 405,-245.175 503,-245.175 503,-281.175"/>
<text text-anchor="middle" x="454" y="-260.375" font-family="Courier,monospace" font-size="11.00">general_form</text>
</g>
<!-- \\general_form&#45;&gt;\\moodleform -->
<g id="edge6" class="edge"><title>\\general_form&#45;&gt;\\moodleform</title>
<path fill="none" stroke="black" d="M404.734,-257.246C390.102,-253.33 375.008,-246.858 364,-236.175 279.966,-154.625 356.224,17.6987 241,-3.17543"/>
</g>
<!-- \\recurring_element_parser -->
<g id="node7" class="node"><title>\\recurring_element_parser</title>
<polygon fill="none" stroke="black" points="543.5,-389.175 364.5,-389.175 364.5,-353.175 543.5,-353.175 543.5,-389.175"/>
<text text-anchor="middle" x="454" y="-368.375" font-family="Courier,monospace" font-size="11.00">recurring_element_parser</text>
</g>
<!-- \\syllabus_form -->
<g id="node8" class="node"><title>\\syllabus_form</title>
<polygon fill="none" stroke="black" points="506,-227.175 402,-227.175 402,-191.175 506,-191.175 506,-227.175"/>
<text text-anchor="middle" x="454" y="-206.375" font-family="Courier,monospace" font-size="11.00">syllabus_form</text>
</g>
<!-- \\syllabus_form&#45;&gt;\\moodleform -->
<g id="edge7" class="edge"><title>\\syllabus_form&#45;&gt;\\moodleform</title>
<path fill="none" stroke="black" d="M401.643,-201.539C388.208,-197.541 374.55,-191.451 364,-182.175 291.509,-118.437 335.981,14.0315 241,-3.17543"/>
</g>
<!-- \\session_form -->
<g id="node9" class="node"><title>\\session_form</title>
<polygon fill="none" stroke="black" points="503,-713.175 405,-713.175 405,-677.175 503,-677.175 503,-713.175"/>
<text text-anchor="middle" x="454" y="-692.375" font-family="Courier,monospace" font-size="11.00">session_form</text>
</g>
<!-- \\metadata_form -->
<g id="node13" class="node"><title>\\metadata_form</title>
<polygon fill="none" stroke="black" points="292,-659.175 188,-659.175 188,-623.175 292,-623.175 292,-659.175"/>
<text text-anchor="middle" x="240" y="-638.375" font-family="Courier,monospace" font-size="11.00">metadata_form</text>
</g>
<!-- \\session_form&#45;&gt;\\metadata_form -->
<g id="edge8" class="edge"><title>\\session_form&#45;&gt;\\metadata_form</title>
<path fill="none" stroke="black" d="M404.894,-682.922C374.448,-675.167 334.81,-665.07 302.142,-656.749"/>
<polygon fill="none" stroke="black" points="302.8,-653.305 292.245,-654.228 301.072,-660.089 302.8,-653.305"/>
</g>
<!-- \\course_select_form -->
<g id="node10" class="node"><title>\\course_select_form</title>
<polygon fill="none" stroke="black" points="523,-173.175 385,-173.175 385,-137.175 523,-137.175 523,-173.175"/>
<text text-anchor="middle" x="454" y="-152.375" font-family="Courier,monospace" font-size="11.00">course_select_form</text>
</g>
<!-- \\course_select_form&#45;&gt;\\moodleform -->
<g id="edge9" class="edge"><title>\\course_select_form&#45;&gt;\\moodleform</title>
<path fill="none" stroke="black" d="M384.577,-139.764C377.273,-136.589 370.243,-132.769 364,-128.175 301.221,-81.9837 317.693,10.7184 241,-3.17543"/>
</g>
<!-- \\assessment_form -->
<g id="node11" class="node"><title>\\assessment_form</title>
<polygon fill="none" stroke="black" points="513,-659.175 395,-659.175 395,-623.175 513,-623.175 513,-659.175"/>
<text text-anchor="middle" x="454" y="-638.375" font-family="Courier,monospace" font-size="11.00">assessment_form</text>
</g>
<!-- \\assessment_form&#45;&gt;\\metadata_form -->
<g id="edge10" class="edge"><title>\\assessment_form&#45;&gt;\\metadata_form</title>
<path fill="none" stroke="black" d="M394.79,-641.175C366.061,-641.175 331.409,-641.175 302.277,-641.175"/>
<polygon fill="none" stroke="black" points="302.221,-637.676 292.221,-641.175 302.221,-644.676 302.221,-637.676"/>
</g>
<!-- \\university_form -->
<g id="node12" class="node"><title>\\university_form</title>
<polygon fill="none" stroke="black" points="513,-119.175 395,-119.175 395,-83.1754 513,-83.1754 513,-119.175"/>
<text text-anchor="middle" x="454" y="-98.3754" font-family="Courier,monospace" font-size="11.00">university_form</text>
</g>
<!-- \\university_form&#45;&gt;\\moodleform -->
<g id="edge11" class="edge"><title>\\university_form&#45;&gt;\\moodleform</title>
<path fill="none" stroke="black" d="M433.959,-83.011C398.131,-51.0388 317.405,10.6663 241,-3.17543"/>
<path fill="none" stroke="black" d="M239,-3.17543C211.893,-8.0862 198.476,-1.74124 180,-22.1754 106.649,-103.301 70.467,-456.145 61.3525,-558.963"/>
<polygon fill="none" stroke="black" points="57.8435,-558.915 60.4635,-569.181 64.8172,-559.522 57.8435,-558.915"/>
</g>
<!-- \\metadata_form&#45;&gt;\\moodleform -->
<g id="edge12" class="edge"><title>\\metadata_form&#45;&gt;\\moodleform</title>
<path fill="none" stroke="black" d="M187.901,-625.846C163.51,-618.528 134.399,-609.795 110.019,-602.481"/>
<polygon fill="none" stroke="black" points="110.82,-599.067 100.236,-599.546 108.808,-605.772 110.82,-599.067"/>
</g>
</g>
</svg>
